<?xml version="1.0" encoding="utf-8"?>
<!-- Generator: Adobe Illustrator 14.0.0, SVG Export Plug-In . SVG Version: 6.00 Build 43363)  -->
<!DOCTYPE svg PUBLIC "-//W3C//DTD SVG 1.1//EN" "http://www.w3.org/Graphics/SVG/1.1/DTD/svg11.dtd">
<svg version="1.1" id="Capa_1" xmlns="http://www.w3.org/2000/svg" xmlns:xlink="http://www.w3.org/1999/xlink" x="0px" y="0px"
	 width="259px" height="67.948px" viewBox="0 0 259 67.948" enable-background="new 0 0 259 67.948" xml:space="preserve">
<g>
	<path fill="#58C1EA" d="M61.973,58.182C31.716,72.977,1.049,60.167,3.661,34.65l0.047-0.011c-0.009-0.157-0.015-0.316,0-0.475
		c0.4-3.933,5.642-8.083,11.402-9.41c5.426-1.254,9.792,0.377,10.044,3.736c0.008,0.141,0.007,0.277,0.002,0.42l0.018-0.001
		c1.322,16.647,22.413,25.299,42.343,16.896c16.009-6.745,20.952-21.1,15.185-31.314l0.093,0.167
		C90.171,27.57,84.062,47.391,61.973,58.182"/>
	<path fill="#58C1EA" d="M68.483,40.501c-17.085,6.62-35.309-0.864-37.124-14.874l0.024-0.01c-0.021-0.086-0.045-0.182-0.062-0.279
		c-0.304-2.355,2.26-4.842,5.602-5.612c3.207-0.737,6.121,0.351,6.641,2.484c0.021,0.083,0.029,0.174,0.042,0.264l0.014-0.004
		c2.465,9.958,15.826,15.39,28.043,11.148c10.682-3.704,14.385-13.033,10.278-20.322l0.068,0.122
		C87.226,22.566,82.64,35.018,68.483,40.501"/>
	<path fill="#B7E0F4" d="M80.703,15.048c-0.938-6.128-7.529-10.984-15.411-11.86l0.003,0.005c-0.063-0.009-0.126-0.018-0.189-0.024
		c-1.581-0.18-3.003,0.505-3.161,1.548c-0.16,1.075,1.074,2.103,2.742,2.264C64.754,6.992,64.819,6.995,64.884,7l-0.001,0.001
		c6.779,0.671,12.367,4.931,12.998,10.315c0.737,6.333-5.488,12.38-14.627,12.685c0.055,0,0.112-0.004,0.171-0.005
		C74.579,29.675,81.833,22.435,80.703,15.048"/>
	<path fill="#B7E0F4" d="M76.083,18.098c-0.491-5.119-5.737-9.17-12.167-9.754l0.004,0.004c-0.052-0.005-0.106-0.012-0.154-0.02
		c-1.28-0.119-2.437,0.498-2.573,1.393c-0.135,0.919,0.839,1.769,2.181,1.875c0.051,0.004,0.105,0.005,0.155,0.006l0.002,0.008
		c5.469,0.449,9.877,3.942,10.171,8.381c0.341,5.064-4.726,9.767-11.705,9.997c0.042-0.007,0.083-0.001,0.125-0.009
		C70.668,29.734,76.651,24.075,76.083,18.098"/>
</g>
<g enable-background="new    ">
	<path fill="#FFFFFF" d="M150.665,41.749h0.779v11.979h7.177V54.4h-7.956V41.749z"/>
	<path fill="#FFFFFF" d="M166.117,52.716c0,0.354,0.032,0.626,0.097,0.816c0.065,0.189,0.233,0.283,0.505,0.283
		c0.118,0,0.283-0.018,0.496-0.054v0.567h-0.054c-0.224,0.047-0.39,0.071-0.496,0.071c-0.484,0-0.809-0.112-0.974-0.336
		c-0.166-0.225-0.249-0.556-0.249-0.993v-0.478h-0.035c-0.225,0.579-0.638,1.06-1.241,1.444c-0.603,0.384-1.317,0.576-2.144,0.576
		c-0.933,0-1.674-0.204-2.223-0.612c-0.55-0.408-0.825-1.06-0.825-1.958c0-0.508,0.098-0.933,0.293-1.276
		c0.195-0.343,0.455-0.611,0.779-0.806s0.676-0.337,1.055-0.425c0.377-0.089,0.785-0.151,1.223-0.186
		c0.791-0.06,1.388-0.122,1.79-0.187c0.401-0.064,0.7-0.159,0.895-0.283c0.195-0.125,0.319-0.29,0.372-0.497
		c0.054-0.206,0.08-0.517,0.08-0.93c0-0.13-0.039-0.293-0.116-0.487c-0.076-0.195-0.209-0.393-0.398-0.594
		c-0.189-0.2-0.452-0.369-0.789-0.504c-0.336-0.136-0.747-0.204-1.231-0.204c-0.827,0-1.489,0.21-1.985,0.629
		s-0.768,1.019-0.815,1.798h-0.674c0.048-0.992,0.367-1.742,0.957-2.25c0.591-0.507,1.43-0.761,2.517-0.761
		c0.437,0,0.841,0.039,1.213,0.116c0.373,0.076,0.708,0.203,1.01,0.38c0.302,0.178,0.538,0.422,0.708,0.736
		c0.171,0.313,0.258,0.693,0.258,1.143V52.716z M165.443,49.226c-0.177,0.201-0.44,0.34-0.789,0.416
		c-0.348,0.077-0.841,0.139-1.479,0.187c-0.473,0.036-0.815,0.071-1.028,0.106c-0.827,0.095-1.45,0.304-1.869,0.628
		c-0.42,0.325-0.629,0.818-0.629,1.48c0,0.579,0.207,1.054,0.621,1.426s1.004,0.559,1.771,0.559c0.709,0,1.293-0.127,1.754-0.381
		s0.81-0.561,1.046-0.921c0.236-0.36,0.395-0.7,0.478-1.019c0.083-0.319,0.124-0.578,0.124-0.78V49.226z"/>
	<path fill="#FFFFFF" d="M173.311,41.749h5.386c0.425,0,0.845,0.047,1.258,0.141c0.413,0.095,0.804,0.269,1.17,0.522
		c0.365,0.255,0.667,0.618,0.903,1.09c0.236,0.473,0.354,1.069,0.354,1.79c0,1.099-0.345,1.952-1.036,2.561
		c-0.691,0.608-1.669,0.912-2.933,0.912h-4.324V54.4h-0.779V41.749z M174.09,48.091h4.448c0.543,0,1.013-0.082,1.409-0.248
		c0.395-0.165,0.714-0.383,0.956-0.656c0.242-0.271,0.42-0.573,0.532-0.904c0.112-0.331,0.168-0.667,0.168-1.01
		c0-0.283-0.042-0.584-0.124-0.904c-0.083-0.319-0.23-0.626-0.443-0.921c-0.212-0.295-0.517-0.541-0.912-0.736
		c-0.396-0.195-0.889-0.292-1.479-0.292h-4.554V48.091z"/>
	<path fill="#FFFFFF" d="M184.492,41.749V54.4h-0.673V41.749H184.492z"/>
	<path fill="#FFFFFF" d="M193.352,52.716c0,0.354,0.032,0.626,0.097,0.816c0.065,0.189,0.233,0.283,0.505,0.283
		c0.118,0,0.283-0.018,0.496-0.054v0.567h-0.054c-0.224,0.047-0.39,0.071-0.496,0.071c-0.484,0-0.809-0.112-0.974-0.336
		c-0.166-0.225-0.249-0.556-0.249-0.993v-0.478h-0.035c-0.225,0.579-0.638,1.06-1.241,1.444c-0.603,0.384-1.317,0.576-2.144,0.576
		c-0.934,0-1.674-0.204-2.223-0.612c-0.55-0.408-0.824-1.06-0.824-1.958c0-0.508,0.098-0.933,0.292-1.276
		c0.195-0.343,0.454-0.611,0.779-0.806c0.325-0.195,0.677-0.337,1.055-0.425c0.378-0.089,0.785-0.151,1.223-0.186
		c0.791-0.06,1.388-0.122,1.79-0.187c0.401-0.064,0.7-0.159,0.895-0.283c0.195-0.125,0.319-0.29,0.372-0.497
		c0.054-0.206,0.08-0.517,0.08-0.93c0-0.13-0.039-0.293-0.116-0.487c-0.076-0.195-0.21-0.393-0.398-0.594
		c-0.189-0.2-0.452-0.369-0.789-0.504c-0.336-0.136-0.747-0.204-1.231-0.204c-0.827,0-1.488,0.21-1.984,0.629
		s-0.768,1.019-0.815,1.798h-0.674c0.048-0.992,0.367-1.742,0.957-2.25c0.591-0.507,1.43-0.761,2.516-0.761
		c0.438,0,0.842,0.039,1.214,0.116c0.372,0.076,0.708,0.203,1.01,0.38c0.302,0.178,0.538,0.422,0.709,0.736
		c0.171,0.313,0.257,0.693,0.257,1.143V52.716z M192.678,49.226c-0.177,0.201-0.44,0.34-0.789,0.416
		c-0.348,0.077-0.841,0.139-1.479,0.187c-0.472,0.036-0.815,0.071-1.028,0.106c-0.827,0.095-1.45,0.304-1.869,0.628
		c-0.419,0.325-0.629,0.818-0.629,1.48c0,0.579,0.207,1.054,0.621,1.426c0.413,0.372,1.003,0.559,1.771,0.559
		c0.708,0,1.293-0.127,1.754-0.381c0.461-0.254,0.81-0.561,1.046-0.921s0.396-0.7,0.478-1.019c0.083-0.319,0.124-0.578,0.124-0.78
		V49.226z"/>
	<path fill="#FFFFFF" d="M198.844,45.877h-1.984v6.361c0,0.65,0.144,1.075,0.434,1.276c0.289,0.201,0.8,0.301,1.533,0.301V54.4
		c-0.024,0-0.106,0.006-0.249,0.018c-0.095,0-0.171,0-0.229,0c-0.319,0-0.606-0.029-0.86-0.089
		c-0.254-0.059-0.478-0.168-0.673-0.328c-0.195-0.159-0.348-0.383-0.461-0.673c-0.112-0.289-0.168-0.653-0.168-1.09v-6.361h-1.683
		v-0.585h1.683v-2.835h0.674v2.835h1.984V45.877z"/>
	<path fill="#FFFFFF" d="M206.8,52.716c0,0.354,0.032,0.626,0.098,0.816c0.064,0.189,0.233,0.283,0.505,0.283
		c0.118,0,0.283-0.018,0.496-0.054v0.567h-0.053c-0.225,0.047-0.39,0.071-0.497,0.071c-0.484,0-0.809-0.112-0.974-0.336
		c-0.166-0.225-0.249-0.556-0.249-0.993v-0.478h-0.035c-0.225,0.579-0.638,1.06-1.241,1.444c-0.602,0.384-1.317,0.576-2.144,0.576
		c-0.934,0-1.674-0.204-2.224-0.612c-0.549-0.408-0.824-1.06-0.824-1.958c0-0.508,0.097-0.933,0.292-1.276
		c0.195-0.343,0.455-0.611,0.78-0.806c0.325-0.195,0.676-0.337,1.054-0.425c0.378-0.089,0.785-0.151,1.223-0.186
		c0.792-0.06,1.388-0.122,1.79-0.187c0.401-0.064,0.7-0.159,0.895-0.283c0.195-0.125,0.319-0.29,0.373-0.497
		c0.053-0.206,0.079-0.517,0.079-0.93c0-0.13-0.039-0.293-0.115-0.487c-0.077-0.195-0.21-0.393-0.398-0.594
		c-0.19-0.2-0.453-0.369-0.789-0.504c-0.337-0.136-0.748-0.204-1.232-0.204c-0.827,0-1.489,0.21-1.985,0.629
		s-0.768,1.019-0.815,1.798h-0.673c0.047-0.992,0.366-1.742,0.957-2.25c0.591-0.507,1.43-0.761,2.517-0.761
		c0.437,0,0.841,0.039,1.213,0.116c0.373,0.076,0.708,0.203,1.011,0.38c0.301,0.178,0.537,0.422,0.708,0.736
		c0.17,0.313,0.257,0.693,0.257,1.143V52.716z M206.126,49.226c-0.177,0.201-0.44,0.34-0.789,0.416
		c-0.348,0.077-0.841,0.139-1.479,0.187c-0.474,0.036-0.816,0.071-1.028,0.106c-0.827,0.095-1.45,0.304-1.87,0.628
		c-0.419,0.325-0.629,0.818-0.629,1.48c0,0.579,0.207,1.054,0.62,1.426s1.004,0.559,1.771,0.559c0.709,0,1.294-0.127,1.755-0.381
		c0.46-0.254,0.809-0.561,1.045-0.921s0.396-0.7,0.478-1.019c0.083-0.319,0.124-0.578,0.124-0.78V49.226z"/>
</g>
<g enable-background="new    ">
	<path fill="#FFFFFF" d="M107.549,27.291c-0.151,1.384-0.692,2.482-1.623,3.295c-0.929,0.813-2.113,1.22-3.55,1.22
		c-1.682,0-3.017-0.561-4.007-1.684c-0.99-1.123-1.484-2.641-1.484-4.556c0-1.952,0.495-3.501,1.484-4.648
		c0.99-1.148,2.325-1.721,4.007-1.721c1.42,0,2.597,0.384,3.53,1.151c0.933,0.767,1.481,1.807,1.643,3.12h-2.498
		c-0.081-0.645-0.359-1.158-0.835-1.538c-0.475-0.379-1.079-0.569-1.812-0.569c-0.929,0-1.657,0.371-2.184,1.11
		c-0.526,0.741-0.79,1.768-0.79,3.08c0,1.279,0.262,2.281,0.786,3.005c0.523,0.724,1.253,1.085,2.188,1.085
		c0.733,0,1.337-0.211,1.812-0.634c0.476-0.423,0.754-0.996,0.835-1.717H107.549z"/>
	<path fill="#FFFFFF" d="M109.978,30.464c-0.816-0.83-1.225-1.95-1.225-3.359c0-1.443,0.408-2.589,1.225-3.438
		s1.916-1.273,3.299-1.273c1.393,0,2.497,0.425,3.31,1.273c0.814,0.849,1.221,1.994,1.221,3.438c0,1.409-0.407,2.529-1.221,3.359
		c-0.813,0.829-1.917,1.245-3.31,1.245C111.893,31.708,110.794,31.293,109.978,30.464z M114.862,29.073
		c0.363-0.456,0.545-1.12,0.545-1.993c0-0.896-0.182-1.574-0.545-2.039c-0.363-0.464-0.892-0.696-1.586-0.696
		c-0.694,0-1.222,0.232-1.583,0.696c-0.36,0.464-0.541,1.143-0.541,2.039c0,0.873,0.181,1.537,0.541,1.993
		c0.36,0.456,0.888,0.683,1.583,0.683C113.97,29.756,114.499,29.528,114.862,29.073z"/>
	<path fill="#FFFFFF" d="M119.442,22.63h1.106h1.114v1.31c0.093-0.157,0.192-0.306,0.301-0.447c0.574-0.732,1.41-1.099,2.506-1.099
		c0.933,0,1.664,0.277,2.192,0.83c0.529,0.553,0.793,1.32,0.793,2.303v5.954h-1.164h-1.171v-5.531c0-0.548-0.118-0.953-0.353-1.216
		c-0.236-0.263-0.598-0.395-1.086-0.395c-0.613,0-1.083,0.185-1.411,0.553c-0.328,0.369-0.492,0.901-0.492,1.594v4.995h-1.164
		h-1.171V22.63z"/>
	<path fill="#FFFFFF" d="M137.265,28.202c-0.119,1.101-0.529,1.96-1.228,2.579c-0.7,0.619-1.611,0.928-2.734,0.928
		c-1.339,0-2.374-0.399-3.103-1.196c-0.729-0.797-1.094-1.933-1.094-3.408c0-1.443,0.378-2.589,1.135-3.438s1.777-1.273,3.063-1.273
		c1.139,0,2.071,0.315,2.799,0.944c0.727,0.629,1.114,1.456,1.163,2.481h-2.375c-0.022-0.439-0.178-0.794-0.468-1.065
		c-0.29-0.271-0.663-0.408-1.119-0.408c-0.585,0-1.032,0.235-1.338,0.705c-0.307,0.469-0.46,1.154-0.46,2.054
		c0,0.878,0.153,1.546,0.46,2.005c0.306,0.458,0.753,0.687,1.338,0.687c0.423,0,0.781-0.146,1.074-0.439
		c0.292-0.293,0.463-0.678,0.513-1.155H137.265z"/>
	<path fill="#FFFFFF" d="M142.39,31.708c-1.345,0-2.381-0.416-3.111-1.245c-0.729-0.83-1.094-2.012-1.094-3.547
		c0-1.415,0.371-2.522,1.115-3.322c0.742-0.8,1.773-1.201,3.09-1.201c1.351,0,2.39,0.408,3.121,1.225
		c0.729,0.816,1.094,1.978,1.094,3.486c0.01,0.173-0.003,0.35-0.041,0.529h-6.028c0.053,0.699,0.208,1.223,0.463,1.57
		c0.326,0.434,0.868,0.65,1.627,0.65c0.353,0,0.679-0.1,0.98-0.301c0.301-0.2,0.48-0.442,0.541-0.724h2.375
		c-0.2,0.9-0.665,1.605-1.395,2.115C144.397,31.453,143.485,31.708,142.39,31.708z M144.172,26.145
		c-0.055-0.532-0.195-0.946-0.423-1.245c-0.298-0.396-0.762-0.594-1.391-0.594c-0.602,0-1.061,0.23-1.375,0.692
		c-0.195,0.292-0.337,0.674-0.423,1.147H144.172z"/>
	<path fill="#FFFFFF" d="M148.198,22.63h1.163h1.171v9.819c0,0.96-0.208,1.632-0.623,2.017s-1.135,0.577-2.16,0.577l-0.634-0.008
		v-1.863l0.285,0.008c0.314,0,0.526-0.05,0.634-0.15c0.108-0.101,0.163-0.294,0.163-0.582V22.63z M148.182,19.433h2.375v2.164
		h-2.375V19.433z"/>
	<path fill="#FFFFFF" d="M153.49,30.464c-0.816-0.83-1.225-1.95-1.225-3.359c0-1.443,0.408-2.589,1.225-3.438
		c0.816-0.849,1.916-1.273,3.298-1.273c1.394,0,2.497,0.425,3.311,1.273c0.814,0.849,1.221,1.994,1.221,3.438
		c0,1.409-0.407,2.529-1.221,3.359c-0.813,0.829-1.917,1.245-3.311,1.245C155.406,31.708,154.306,31.293,153.49,30.464z
		 M158.375,29.073c0.363-0.456,0.545-1.12,0.545-1.993c0-0.896-0.182-1.574-0.545-2.039c-0.364-0.464-0.892-0.696-1.586-0.696
		c-0.695,0-1.221,0.232-1.583,0.696c-0.36,0.464-0.54,1.143-0.54,2.039c0,0.873,0.18,1.537,0.54,1.993
		c0.361,0.456,0.888,0.683,1.583,0.683C157.483,29.756,158.011,29.528,158.375,29.073z"/>
	<path fill="#FFFFFF" d="M167.771,19.522h1.245h3.872c1.644,0,2.892,0.483,3.746,1.448c0.854,0.966,1.281,2.378,1.281,4.238
		c0,2.05-0.443,3.608-1.33,4.674c-0.887,1.065-2.187,1.598-3.901,1.598h-3.668h-1.245V19.522z M170.268,29.422h2.107
		c1.014,0,1.774-0.343,2.282-1.029c0.507-0.686,0.761-1.715,0.761-3.087c0-1.242-0.236-2.173-0.708-2.794
		c-0.472-0.622-1.182-0.931-2.131-0.931h-2.311V29.422z"/>
	<path fill="#FFFFFF" d="M183.121,31.708c-1.346,0-2.382-0.416-3.112-1.245c-0.729-0.83-1.094-2.012-1.094-3.547
		c0-1.415,0.372-2.522,1.115-3.322c0.742-0.8,1.773-1.201,3.091-1.201c1.35,0,2.39,0.408,3.12,1.225
		c0.729,0.816,1.094,1.978,1.094,3.486c0.011,0.173-0.003,0.35-0.041,0.529h-6.028c0.054,0.699,0.209,1.223,0.464,1.57
		c0.325,0.434,0.867,0.65,1.626,0.65c0.353,0,0.68-0.1,0.981-0.301c0.301-0.2,0.481-0.442,0.541-0.724h2.375
		c-0.2,0.9-0.666,1.605-1.395,2.115C185.128,31.453,184.216,31.708,183.121,31.708z M184.902,26.145
		c-0.054-0.532-0.195-0.946-0.423-1.245c-0.298-0.396-0.762-0.594-1.391-0.594c-0.602,0-1.06,0.23-1.375,0.692
		c-0.195,0.292-0.336,0.674-0.423,1.147H184.902z"/>
	<path fill="#FFFFFF" d="M188.945,19.522h1.163h1.171V31.48h-1.164h-1.171V19.522z"/>
	<path fill="#FFFFFF" d="M193.574,19.433h2.375v2.164h-2.375V19.433z M193.598,22.63h1.163h1.171v8.85h-1.164h-1.171V22.63z"/>
	<path fill="#FFFFFF" d="M198.072,19.522h1.163h1.171v4.262l0.049-0.065c0.629-0.883,1.458-1.326,2.489-1.326
		c1.123,0,2.025,0.416,2.708,1.245c0.684,0.83,1.025,1.923,1.025,3.278c0,1.438-0.341,2.595-1.025,3.474
		c-0.684,0.879-1.586,1.318-2.708,1.318c-1.025,0-1.855-0.412-2.489-1.237l-0.098-0.13v1.138h-2.285V19.522z M202.277,29.789
		c0.63,0,1.12-0.235,1.473-0.704s0.529-1.121,0.529-1.957c0-0.851-0.176-1.517-0.529-1.998c-0.353-0.479-0.84-0.719-1.465-0.719
		c-0.623,0-1.111,0.247-1.463,0.74c-0.353,0.493-0.529,1.18-0.529,2.059c0,0.808,0.176,1.439,0.529,1.895
		C201.168,29.561,201.654,29.789,202.277,29.789z"/>
	<path fill="#FFFFFF" d="M211.82,31.708c-1.345,0-2.382-0.416-3.112-1.245c-0.729-0.83-1.094-2.012-1.094-3.547
		c0-1.415,0.372-2.522,1.115-3.322c0.742-0.8,1.773-1.201,3.091-1.201c1.351,0,2.391,0.408,3.12,1.225
		c0.729,0.816,1.094,1.978,1.094,3.486c0.011,0.173-0.003,0.35-0.041,0.529h-6.028c0.054,0.699,0.209,1.223,0.464,1.57
		c0.325,0.434,0.867,0.65,1.626,0.65c0.353,0,0.679-0.1,0.98-0.301c0.3-0.2,0.481-0.442,0.541-0.724h2.375
		c-0.2,0.9-0.665,1.605-1.395,2.115S212.915,31.708,211.82,31.708z M213.602,26.145c-0.055-0.532-0.196-0.946-0.423-1.245
		c-0.298-0.396-0.762-0.594-1.391-0.594c-0.602,0-1.06,0.23-1.375,0.692c-0.196,0.292-0.337,0.674-0.423,1.147H213.602z"/>
	<path fill="#FFFFFF" d="M217.563,22.63h1.106h1.114v1.586c0.082-0.173,0.174-0.341,0.277-0.504
		c0.547-0.878,1.255-1.318,2.123-1.318l0.529,0.009v2.383c-0.206-0.021-0.439-0.032-0.699-0.032c-0.711,0-1.241,0.176-1.59,0.529
		c-0.35,0.352-0.525,0.886-0.525,1.603v4.595h-1.163h-1.171V22.63z"/>
	<path fill="#FFFFFF" d="M226.185,31.708c-0.818,0-1.478-0.235-1.976-0.704c-0.499-0.469-0.749-1.086-0.749-1.852
		c0-0.808,0.225-1.455,0.675-1.94c0.45-0.484,1.106-0.79,1.969-0.915l1.537-0.211c0.402-0.054,0.735-0.147,1-0.277
		c0.114-0.054,0.203-0.151,0.265-0.293c0.062-0.141,0.085-0.285,0.069-0.431c-0.033-0.25-0.16-0.445-0.382-0.586
		c-0.266-0.167-0.648-0.252-1.147-0.252c-0.445,0-0.792,0.109-1.042,0.326s-0.382,0.523-0.399,0.919h-2.237
		c0.049-1.036,0.401-1.812,1.058-2.327c0.656-0.516,1.619-0.773,2.888-0.773c1.101,0,1.97,0.233,2.607,0.697
		s0.956,1.098,0.956,1.901v4.951c0,0.396,0.033,0.675,0.098,0.834c0.065,0.161,0.195,0.286,0.39,0.379v0.008v0.317h-1.26h-1.261
		v-0.008c-0.103-0.357-0.17-0.708-0.204-1.049l-0.008-0.017C228.301,31.274,227.352,31.708,226.185,31.708z M228.992,28.21v-1.017
		c-0.271,0.152-0.629,0.274-1.074,0.366l-0.862,0.163c-0.407,0.075-0.716,0.215-0.927,0.419c-0.212,0.203-0.318,0.459-0.318,0.769
		c0,0.353,0.095,0.629,0.285,0.83c0.19,0.2,0.456,0.3,0.797,0.3c0.748,0,1.345-0.263,1.79-0.789c0.087-0.103,0.161-0.255,0.22-0.456
		C228.962,28.595,228.992,28.4,228.992,28.21z"/>
	<path fill="#FFFFFF" d="M233.328,22.63h1.106h1.114v1.31c0.093-0.157,0.193-0.306,0.301-0.447c0.575-0.732,1.41-1.099,2.506-1.099
		c0.932,0,1.663,0.277,2.192,0.83c0.529,0.553,0.793,1.32,0.793,2.303v5.954h-1.164h-1.171v-5.531c0-0.548-0.118-0.953-0.354-1.216
		c-0.236-0.263-0.598-0.395-1.086-0.395c-0.613,0-1.083,0.185-1.411,0.553c-0.329,0.369-0.493,0.901-0.493,1.594v4.995H234.5h-1.171
		V22.63z"/>
	<path fill="#FFFFFF" d="M247.572,31.529c-0.39,0.032-0.87,0.049-1.439,0.049c-0.824,0-1.417-0.148-1.778-0.443
		s-0.541-0.779-0.541-1.453v-5.417h-1.228V22.63h1.228v-2.384h2.335v2.384h1.423v1.635h-1.423v5.027
		c0,0.207,0.061,0.341,0.183,0.406c0.122,0.066,0.375,0.098,0.76,0.098h0.48V31.529z"/>
	<path fill="#FFFFFF" d="M252.558,31.708c-1.345,0-2.382-0.416-3.112-1.245c-0.729-0.83-1.094-2.012-1.094-3.547
		c0-1.415,0.371-2.522,1.115-3.322c0.743-0.8,1.773-1.201,3.091-1.201c1.35,0,2.39,0.408,3.12,1.225
		c0.729,0.816,1.094,1.978,1.094,3.486c0.011,0.173-0.002,0.35-0.04,0.529h-6.028c0.054,0.699,0.208,1.223,0.463,1.57
		c0.325,0.434,0.868,0.65,1.627,0.65c0.353,0,0.679-0.1,0.981-0.301c0.3-0.2,0.48-0.442,0.54-0.724h2.375
		c-0.201,0.9-0.665,1.605-1.395,2.115C254.565,31.453,253.653,31.708,252.558,31.708z M254.34,26.145
		c-0.055-0.532-0.195-0.946-0.423-1.245c-0.298-0.396-0.762-0.594-1.391-0.594c-0.602,0-1.061,0.23-1.375,0.692
		c-0.196,0.292-0.337,0.674-0.423,1.147H254.34z"/>
</g>
</svg>
