<?xml version="1.0" encoding="utf-8"?>
<!-- Generator: Adobe Illustrator 14.0.0, SVG Export Plug-In . SVG Version: 6.00 Build 43363)  -->
<!DOCTYPE svg PUBLIC "-//W3C//DTD SVG 1.1//EN" "http://www.w3.org/Graphics/SVG/1.1/DTD/svg11.dtd">
<svg version="1.1" id="Capa_1" xmlns="http://www.w3.org/2000/svg" xmlns:xlink="http://www.w3.org/1999/xlink" x="0px" y="0px"
	 width="259px" height="67.949px" viewBox="0 0 259 67.949" enable-background="new 0 0 259 67.949" xml:space="preserve">
<g>
	<path fill="#58C1EA" d="M61.973,58.182C31.716,72.977,1.049,60.167,3.661,34.65l0.047-0.011c-0.009-0.157-0.015-0.316,0-0.475
		c0.4-3.933,5.642-8.083,11.402-9.41c5.426-1.254,9.792,0.377,10.044,3.736c0.008,0.141,0.007,0.277,0.002,0.42l0.018-0.001
		c1.322,16.647,22.413,25.299,42.343,16.896c16.009-6.745,20.952-21.1,15.185-31.314l0.093,0.167
		C90.171,27.57,84.062,47.391,61.973,58.182"/>
	<path fill="#58C1EA" d="M68.483,40.501c-17.085,6.619-35.309-0.864-37.124-14.875l0.024-0.01c-0.021-0.086-0.045-0.182-0.062-0.279
		c-0.304-2.355,2.26-4.842,5.602-5.612c3.207-0.737,6.121,0.351,6.641,2.484c0.021,0.083,0.029,0.174,0.042,0.264l0.014-0.004
		c2.465,9.958,15.826,15.39,28.043,11.148c10.682-3.704,14.385-13.033,10.278-20.322l0.068,0.122
		C87.226,22.566,82.64,35.018,68.483,40.501"/>
	<path fill="#B7E0F4" d="M80.703,15.048C79.765,8.92,73.174,4.064,65.292,3.188l0.003,0.005c-0.063-0.009-0.126-0.018-0.189-0.024
		c-1.581-0.18-3.003,0.505-3.161,1.548c-0.16,1.075,1.074,2.103,2.742,2.264C64.754,6.992,64.819,6.995,64.884,7l-0.001,0.001
		c6.779,0.671,12.367,4.931,12.998,10.315c0.737,6.333-5.488,12.38-14.627,12.685c0.055,0,0.112-0.004,0.171-0.005
		C74.579,29.675,81.833,22.435,80.703,15.048"/>
	<path fill="#B7E0F4" d="M76.083,18.098c-0.491-5.119-5.737-9.17-12.167-9.754l0.004,0.004c-0.052-0.005-0.106-0.012-0.154-0.02
		c-1.28-0.119-2.437,0.498-2.573,1.393c-0.135,0.919,0.839,1.769,2.181,1.875c0.051,0.004,0.105,0.005,0.155,0.006l0.002,0.008
		c5.469,0.449,9.877,3.942,10.171,8.381c0.341,5.064-4.726,9.767-11.705,9.997c0.042-0.007,0.083-0.001,0.125-0.009
		C70.668,29.734,76.651,24.075,76.083,18.098"/>
</g>
<g enable-background="new    ">
	<path fill="#3E3D40" d="M150.665,41.75h0.778v11.979h7.178V54.4h-7.956V41.75L150.665,41.75z"/>
	<path fill="#3E3D40" d="M166.117,52.716c0,0.354,0.031,0.625,0.097,0.816c0.065,0.188,0.233,0.282,0.505,0.282
		c0.118,0,0.283-0.019,0.496-0.054v0.566h-0.054c-0.224,0.047-0.39,0.071-0.496,0.071c-0.483,0-0.81-0.112-0.974-0.336
		c-0.166-0.226-0.25-0.556-0.25-0.993v-0.479h-0.034c-0.226,0.58-0.638,1.061-1.241,1.445c-0.604,0.383-1.316,0.575-2.145,0.575
		c-0.933,0-1.674-0.204-2.223-0.612c-0.55-0.408-0.824-1.06-0.824-1.957c0-0.508,0.098-0.934,0.293-1.276
		c0.194-0.343,0.455-0.61,0.778-0.806c0.324-0.195,0.677-0.338,1.056-0.426c0.377-0.089,0.785-0.15,1.223-0.186
		c0.791-0.061,1.388-0.122,1.789-0.188c0.402-0.063,0.701-0.158,0.896-0.283c0.195-0.125,0.319-0.289,0.372-0.496
		c0.055-0.207,0.08-0.518,0.08-0.93c0-0.131-0.039-0.293-0.115-0.488c-0.076-0.194-0.209-0.393-0.398-0.594
		c-0.189-0.199-0.452-0.369-0.789-0.504c-0.336-0.136-0.747-0.203-1.23-0.203c-0.828,0-1.49,0.209-1.986,0.629
		c-0.496,0.418-0.768,1.019-0.814,1.797h-0.674c0.048-0.991,0.367-1.741,0.957-2.25c0.591-0.506,1.43-0.76,2.518-0.76
		c0.436,0,0.84,0.039,1.213,0.115s0.707,0.203,1.01,0.381c0.302,0.178,0.537,0.422,0.707,0.735c0.172,0.313,0.259,0.692,0.259,1.144
		L166.117,52.716L166.117,52.716z M165.443,49.226c-0.178,0.201-0.44,0.34-0.789,0.416c-0.348,0.076-0.842,0.139-1.479,0.188
		c-0.473,0.035-0.815,0.07-1.028,0.105c-0.826,0.096-1.449,0.305-1.869,0.628c-0.42,0.325-0.629,0.817-0.629,1.479
		c0,0.58,0.207,1.055,0.621,1.426c0.414,0.373,1.004,0.56,1.771,0.56c0.709,0,1.293-0.127,1.754-0.381s0.811-0.562,1.046-0.921
		c0.236-0.359,0.396-0.7,0.478-1.02c0.084-0.318,0.125-0.578,0.125-0.779V49.226L165.443,49.226z"/>
	<path fill="#3E3D40" d="M173.311,41.75h5.387c0.425,0,0.845,0.047,1.258,0.141c0.413,0.095,0.804,0.27,1.17,0.521
		c0.365,0.256,0.667,0.619,0.902,1.09c0.236,0.474,0.354,1.069,0.354,1.791c0,1.099-0.345,1.951-1.036,2.561
		c-0.691,0.607-1.668,0.912-2.933,0.912h-4.324V54.4h-0.778V41.75L173.311,41.75z M174.09,48.091h4.448
		c0.543,0,1.013-0.082,1.409-0.248c0.395-0.166,0.714-0.383,0.955-0.656c0.242-0.271,0.42-0.572,0.533-0.904
		c0.111-0.33,0.168-0.666,0.168-1.01c0-0.283-0.043-0.584-0.125-0.904c-0.082-0.318-0.229-0.625-0.442-0.92
		c-0.212-0.296-0.517-0.541-0.912-0.736s-0.89-0.293-1.479-0.293h-4.554L174.09,48.091L174.09,48.091z"/>
	<path fill="#3E3D40" d="M184.492,41.75V54.4h-0.674V41.75H184.492z"/>
	<path fill="#3E3D40" d="M193.352,52.716c0,0.354,0.032,0.625,0.098,0.816c0.064,0.188,0.232,0.282,0.505,0.282
		c0.118,0,0.282-0.019,0.496-0.054v0.566h-0.054c-0.225,0.047-0.391,0.071-0.496,0.071c-0.484,0-0.81-0.112-0.975-0.336
		c-0.166-0.226-0.248-0.556-0.248-0.993v-0.479h-0.035c-0.226,0.58-0.639,1.061-1.242,1.445c-0.603,0.383-1.316,0.575-2.144,0.575
		c-0.934,0-1.674-0.204-2.223-0.612c-0.55-0.408-0.824-1.06-0.824-1.957c0-0.508,0.099-0.934,0.292-1.276
		c0.195-0.343,0.454-0.61,0.779-0.806c0.324-0.195,0.677-0.338,1.055-0.426c0.378-0.089,0.785-0.15,1.223-0.186
		c0.791-0.061,1.389-0.122,1.791-0.188c0.4-0.063,0.699-0.158,0.895-0.283s0.318-0.289,0.372-0.496s0.079-0.518,0.079-0.93
		c0-0.131-0.038-0.293-0.115-0.488c-0.076-0.194-0.21-0.393-0.398-0.594c-0.188-0.199-0.451-0.369-0.789-0.504
		c-0.336-0.136-0.746-0.203-1.23-0.203c-0.827,0-1.488,0.209-1.984,0.629c-0.496,0.418-0.768,1.019-0.814,1.797h-0.674
		c0.047-0.991,0.367-1.741,0.957-2.25c0.59-0.506,1.43-0.76,2.516-0.76c0.438,0,0.842,0.039,1.214,0.115s0.708,0.203,1.011,0.381
		c0.301,0.178,0.537,0.422,0.709,0.735c0.17,0.313,0.256,0.692,0.256,1.144V52.716L193.352,52.716z M192.678,49.226
		c-0.177,0.201-0.439,0.34-0.789,0.416c-0.348,0.076-0.841,0.139-1.479,0.188c-0.473,0.035-0.814,0.07-1.028,0.105
		c-0.827,0.096-1.45,0.305-1.868,0.628c-0.42,0.325-0.63,0.817-0.63,1.479c0,0.58,0.207,1.055,0.621,1.426
		c0.413,0.373,1.003,0.56,1.771,0.56c0.709,0,1.293-0.127,1.754-0.381c0.462-0.254,0.811-0.562,1.047-0.921s0.396-0.7,0.479-1.02
		c0.082-0.318,0.123-0.578,0.123-0.779V49.226L192.678,49.226z"/>
	<path fill="#3E3D40" d="M198.844,45.876h-1.984v6.361c0,0.65,0.145,1.075,0.435,1.276c0.289,0.2,0.8,0.301,1.533,0.301V54.4
		c-0.024,0-0.106,0.006-0.249,0.018c-0.096,0-0.171,0-0.229,0c-0.32,0-0.606-0.028-0.861-0.088c-0.254-0.06-0.477-0.168-0.672-0.328
		s-0.349-0.383-0.461-0.674c-0.112-0.289-0.168-0.652-0.168-1.09v-6.361h-1.684v-0.584h1.684v-2.836h0.674v2.836h1.984v0.584
		H198.844z"/>
	<path fill="#3E3D40" d="M206.8,52.716c0,0.354,0.032,0.625,0.099,0.816c0.063,0.188,0.232,0.282,0.504,0.282
		c0.119,0,0.283-0.019,0.496-0.054v0.566h-0.053c-0.225,0.047-0.39,0.071-0.496,0.071c-0.484,0-0.81-0.112-0.975-0.336
		c-0.166-0.226-0.249-0.556-0.249-0.993v-0.479h-0.035c-0.225,0.58-0.638,1.061-1.241,1.445c-0.602,0.383-1.316,0.575-2.144,0.575
		c-0.935,0-1.674-0.204-2.224-0.612c-0.549-0.408-0.824-1.06-0.824-1.957c0-0.508,0.097-0.934,0.292-1.276
		c0.194-0.343,0.455-0.61,0.78-0.806c0.324-0.195,0.676-0.338,1.054-0.426c0.378-0.089,0.784-0.15,1.223-0.186
		c0.792-0.061,1.388-0.122,1.79-0.188c0.401-0.063,0.7-0.158,0.895-0.283c0.195-0.125,0.32-0.289,0.373-0.496
		c0.054-0.207,0.08-0.518,0.08-0.93c0-0.131-0.039-0.293-0.115-0.488c-0.077-0.194-0.211-0.393-0.398-0.594
		c-0.189-0.199-0.453-0.369-0.789-0.504c-0.337-0.136-0.748-0.203-1.232-0.203c-0.826,0-1.488,0.209-1.984,0.629
		c-0.496,0.418-0.768,1.019-0.814,1.797h-0.674c0.047-0.991,0.366-1.741,0.957-2.25c0.592-0.506,1.43-0.76,2.518-0.76
		c0.437,0,0.841,0.039,1.213,0.115c0.373,0.076,0.708,0.203,1.011,0.381c0.302,0.178,0.537,0.422,0.708,0.735
		c0.17,0.313,0.257,0.692,0.257,1.144V52.716L206.8,52.716z M206.126,49.226c-0.177,0.201-0.44,0.34-0.789,0.416
		s-0.841,0.139-1.479,0.188c-0.474,0.035-0.815,0.07-1.027,0.105c-0.827,0.096-1.45,0.305-1.87,0.628
		c-0.419,0.325-0.629,0.817-0.629,1.479c0,0.58,0.207,1.055,0.62,1.426c0.412,0.373,1.004,0.56,1.771,0.56
		c0.709,0,1.293-0.127,1.754-0.381s0.81-0.562,1.045-0.921c0.236-0.359,0.396-0.7,0.479-1.02c0.083-0.318,0.124-0.578,0.124-0.779
		v-1.701H206.126z"/>
</g>
<g enable-background="new    ">
	<path fill="#3E3D40" d="M107.549,27.291c-0.151,1.384-0.692,2.482-1.623,3.295c-0.929,0.813-2.113,1.22-3.55,1.22
		c-1.682,0-3.017-0.561-4.007-1.684c-0.99-1.123-1.484-2.641-1.484-4.556c0-1.952,0.495-3.501,1.484-4.648
		c0.99-1.148,2.325-1.721,4.007-1.721c1.42,0,2.597,0.384,3.53,1.151c0.933,0.767,1.481,1.807,1.643,3.12h-2.498
		c-0.081-0.645-0.359-1.158-0.835-1.538c-0.475-0.379-1.079-0.569-1.812-0.569c-0.929,0-1.657,0.371-2.184,1.11
		c-0.526,0.741-0.79,1.768-0.79,3.08c0,1.279,0.262,2.281,0.786,3.005c0.523,0.724,1.253,1.085,2.188,1.085
		c0.733,0,1.337-0.211,1.812-0.634c0.476-0.423,0.754-0.996,0.835-1.717L107.549,27.291L107.549,27.291z"/>
	<path fill="#3E3D40" d="M109.978,30.464c-0.816-0.83-1.225-1.95-1.225-3.359c0-1.443,0.408-2.589,1.225-3.438
		s1.916-1.273,3.299-1.273c1.393,0,2.497,0.425,3.31,1.273c0.814,0.849,1.221,1.994,1.221,3.438c0,1.409-0.407,2.529-1.221,3.359
		c-0.813,0.829-1.917,1.245-3.31,1.245C111.893,31.708,110.794,31.293,109.978,30.464z M114.862,29.073
		c0.363-0.456,0.545-1.12,0.545-1.993c0-0.896-0.182-1.574-0.545-2.039c-0.363-0.464-0.892-0.696-1.586-0.696
		c-0.694,0-1.222,0.232-1.583,0.696c-0.36,0.464-0.541,1.143-0.541,2.039c0,0.873,0.181,1.537,0.541,1.993
		c0.36,0.456,0.888,0.683,1.583,0.683C113.97,29.756,114.499,29.528,114.862,29.073z"/>
	<path fill="#3E3D40" d="M119.442,22.63h1.106h1.114v1.31c0.093-0.157,0.192-0.306,0.301-0.447c0.574-0.732,1.41-1.099,2.506-1.099
		c0.933,0,1.664,0.277,2.192,0.83c0.529,0.553,0.793,1.32,0.793,2.303v5.954h-1.164h-1.171V25.95c0-0.548-0.118-0.953-0.353-1.216
		c-0.236-0.263-0.598-0.395-1.086-0.395c-0.613,0-1.083,0.185-1.411,0.553c-0.328,0.369-0.492,0.901-0.492,1.594v4.995h-1.164
		h-1.171V22.63z"/>
	<path fill="#3E3D40" d="M137.266,28.202c-0.119,1.101-0.529,1.96-1.229,2.579c-0.7,0.619-1.611,0.928-2.734,0.928
		c-1.339,0-2.373-0.399-3.103-1.196c-0.729-0.797-1.094-1.933-1.094-3.408c0-1.443,0.378-2.589,1.135-3.438
		c0.757-0.849,1.776-1.273,3.063-1.273c1.139,0,2.07,0.315,2.799,0.944c0.727,0.629,1.113,1.456,1.162,2.481h-2.375
		c-0.021-0.439-0.178-0.794-0.468-1.065s-0.663-0.408-1.118-0.408c-0.586,0-1.033,0.235-1.339,0.705
		c-0.307,0.469-0.46,1.154-0.46,2.054c0,0.878,0.153,1.546,0.46,2.005c0.306,0.458,0.753,0.687,1.339,0.687
		c0.422,0,0.78-0.146,1.073-0.439c0.292-0.293,0.463-0.678,0.513-1.155L137.266,28.202L137.266,28.202z"/>
	<path fill="#3E3D40" d="M142.391,31.708c-1.346,0-2.382-0.416-3.111-1.245c-0.729-0.83-1.094-2.012-1.094-3.547
		c0-1.415,0.371-2.522,1.114-3.322c0.742-0.8,1.772-1.201,3.091-1.201c1.351,0,2.389,0.408,3.121,1.225
		c0.729,0.816,1.094,1.978,1.094,3.486c0.01,0.173-0.004,0.35-0.041,0.529h-6.028c0.053,0.699,0.208,1.223,0.463,1.57
		c0.326,0.434,0.868,0.65,1.627,0.65c0.353,0,0.679-0.1,0.979-0.301c0.301-0.2,0.48-0.442,0.541-0.724h2.375
		c-0.199,0.9-0.664,1.605-1.395,2.115C144.396,31.453,143.484,31.708,142.391,31.708z M144.172,26.145
		c-0.055-0.532-0.195-0.946-0.423-1.245c-0.298-0.396-0.763-0.594-1.392-0.594c-0.602,0-1.061,0.23-1.375,0.692
		c-0.194,0.292-0.336,0.674-0.422,1.147H144.172z"/>
	<path fill="#3E3D40" d="M148.197,22.63h1.164h1.171v9.819c0,0.96-0.208,1.632-0.623,2.017c-0.415,0.385-1.136,0.577-2.16,0.577
		l-0.634-0.008v-1.863l0.285,0.008c0.313,0,0.525-0.05,0.634-0.15c0.108-0.101,0.163-0.294,0.163-0.582V22.63L148.197,22.63z
		 M148.182,19.433h2.375v2.164h-2.375V19.433z"/>
	<path fill="#3E3D40" d="M153.49,30.464c-0.816-0.83-1.225-1.95-1.225-3.359c0-1.443,0.407-2.589,1.225-3.438
		c0.816-0.849,1.916-1.273,3.298-1.273c1.394,0,2.497,0.425,3.312,1.273c0.813,0.849,1.221,1.994,1.221,3.438
		c0,1.409-0.407,2.529-1.221,3.359c-0.813,0.829-1.918,1.245-3.312,1.245C155.406,31.708,154.307,31.293,153.49,30.464z
		 M158.375,29.073c0.363-0.456,0.545-1.12,0.545-1.993c0-0.896-0.182-1.574-0.545-2.039c-0.363-0.464-0.893-0.696-1.586-0.696
		c-0.695,0-1.221,0.232-1.583,0.696c-0.36,0.464-0.54,1.143-0.54,2.039c0,0.873,0.18,1.537,0.54,1.993
		c0.36,0.456,0.888,0.683,1.583,0.683C157.482,29.756,158.012,29.528,158.375,29.073z"/>
	<path fill="#3E3D40" d="M167.771,19.522h1.244h3.873c1.643,0,2.891,0.483,3.745,1.448c0.854,0.966,1.281,2.378,1.281,4.238
		c0,2.05-0.442,3.608-1.33,4.674c-0.888,1.065-2.187,1.598-3.901,1.598h-3.668h-1.244V19.522z M170.268,29.422h2.107
		c1.014,0,1.773-0.343,2.282-1.029c0.507-0.686,0.761-1.715,0.761-3.087c0-1.242-0.236-2.173-0.708-2.794
		c-0.472-0.622-1.183-0.931-2.131-0.931h-2.312V29.422z"/>
	<path fill="#3E3D40" d="M183.121,31.708c-1.346,0-2.383-0.416-3.112-1.245c-0.729-0.83-1.094-2.012-1.094-3.547
		c0-1.415,0.372-2.522,1.114-3.322c0.742-0.8,1.773-1.201,3.092-1.201c1.35,0,2.391,0.408,3.12,1.225
		c0.729,0.816,1.094,1.978,1.094,3.486c0.011,0.173-0.003,0.35-0.041,0.529h-6.028c0.055,0.699,0.209,1.223,0.465,1.57
		c0.324,0.434,0.867,0.65,1.625,0.65c0.354,0,0.681-0.1,0.981-0.301c0.302-0.2,0.481-0.442,0.541-0.724h2.375
		c-0.2,0.9-0.666,1.605-1.396,2.115C185.128,31.453,184.216,31.708,183.121,31.708z M184.902,26.145
		c-0.055-0.532-0.195-0.946-0.424-1.245c-0.297-0.396-0.762-0.594-1.391-0.594c-0.602,0-1.061,0.23-1.375,0.692
		c-0.195,0.292-0.336,0.674-0.423,1.147H184.902z"/>
	<path fill="#3E3D40" d="M188.945,19.522h1.162h1.172V31.48h-1.164h-1.172V19.522H188.945z"/>
	<path fill="#3E3D40" d="M193.574,19.433h2.375v2.164h-2.375V19.433z M193.598,22.63h1.164h1.17v8.85h-1.164h-1.17V22.63
		L193.598,22.63z"/>
	<path fill="#3E3D40" d="M198.072,19.522h1.162h1.172v4.262l0.049-0.065c0.629-0.883,1.458-1.326,2.488-1.326
		c1.123,0,2.025,0.416,2.709,1.245c0.684,0.83,1.024,1.923,1.024,3.278c0,1.438-0.341,2.595-1.024,3.474
		c-0.685,0.879-1.586,1.318-2.709,1.318c-1.024,0-1.854-0.412-2.488-1.237l-0.098-0.13v1.138h-2.285V19.522L198.072,19.522z
		 M202.277,29.789c0.63,0,1.119-0.235,1.473-0.704c0.354-0.469,0.529-1.121,0.529-1.957c0-0.851-0.176-1.517-0.529-1.998
		c-0.354-0.479-0.84-0.719-1.465-0.719c-0.623,0-1.111,0.247-1.463,0.74c-0.354,0.493-0.529,1.18-0.529,2.059
		c0,0.808,0.176,1.439,0.529,1.895C201.168,29.561,201.654,29.789,202.277,29.789z"/>
	<path fill="#3E3D40" d="M211.82,31.708c-1.346,0-2.383-0.416-3.112-1.245c-0.729-0.83-1.095-2.012-1.095-3.547
		c0-1.415,0.373-2.522,1.115-3.322c0.742-0.8,1.773-1.201,3.092-1.201c1.351,0,2.391,0.408,3.119,1.225
		c0.729,0.816,1.095,1.978,1.095,3.486c0.011,0.173-0.003,0.35-0.041,0.529h-6.028c0.055,0.699,0.209,1.223,0.465,1.57
		c0.324,0.434,0.866,0.65,1.625,0.65c0.354,0,0.68-0.1,0.98-0.301c0.3-0.2,0.48-0.442,0.541-0.724h2.375
		c-0.2,0.9-0.665,1.605-1.395,2.115C213.826,31.453,212.915,31.708,211.82,31.708z M213.602,26.145
		c-0.055-0.532-0.195-0.946-0.422-1.245c-0.299-0.396-0.763-0.594-1.392-0.594c-0.603,0-1.06,0.23-1.375,0.692
		c-0.196,0.292-0.337,0.674-0.423,1.147H213.602z"/>
	<path fill="#3E3D40" d="M217.563,22.63h1.106h1.114v1.586c0.082-0.173,0.174-0.341,0.277-0.504
		c0.547-0.878,1.254-1.318,2.123-1.318l0.528,0.009v2.383c-0.206-0.021-0.438-0.032-0.698-0.032c-0.711,0-1.242,0.176-1.591,0.529
		c-0.351,0.352-0.524,0.886-0.524,1.603v4.595h-1.164h-1.17V22.63H217.563z"/>
	<path fill="#3E3D40" d="M226.186,31.708c-0.818,0-1.479-0.235-1.977-0.704c-0.499-0.469-0.749-1.086-0.749-1.852
		c0-0.808,0.226-1.455,0.675-1.94c0.45-0.484,1.106-0.79,1.969-0.915l1.537-0.211c0.402-0.054,0.735-0.147,1-0.277
		c0.114-0.054,0.203-0.151,0.266-0.293c0.062-0.141,0.085-0.285,0.068-0.431c-0.033-0.25-0.16-0.445-0.382-0.586
		c-0.266-0.167-0.647-0.252-1.147-0.252c-0.444,0-0.791,0.109-1.041,0.326c-0.25,0.217-0.383,0.523-0.399,0.919h-2.237
		c0.049-1.036,0.401-1.812,1.059-2.327c0.656-0.516,1.619-0.773,2.888-0.773c1.101,0,1.97,0.233,2.606,0.697
		c0.638,0.464,0.957,1.098,0.957,1.901v4.951c0,0.396,0.033,0.675,0.098,0.834c0.064,0.161,0.195,0.286,0.391,0.379v0.008v0.317
		h-1.261h-1.261v-0.008c-0.104-0.357-0.17-0.708-0.204-1.049l-0.008-0.017C228.301,31.274,227.352,31.708,226.186,31.708z
		 M228.992,28.21v-1.017c-0.271,0.152-0.629,0.274-1.074,0.366l-0.861,0.163c-0.408,0.075-0.717,0.215-0.928,0.419
		c-0.212,0.203-0.318,0.459-0.318,0.769c0,0.353,0.096,0.629,0.285,0.83c0.19,0.2,0.457,0.3,0.797,0.3
		c0.748,0,1.346-0.263,1.791-0.789c0.086-0.103,0.16-0.255,0.219-0.456C228.962,28.595,228.992,28.4,228.992,28.21z"/>
	<path fill="#3E3D40" d="M233.328,22.63h1.105h1.114v1.31c0.093-0.157,0.193-0.306,0.302-0.447c0.574-0.732,1.409-1.099,2.506-1.099
		c0.932,0,1.662,0.277,2.191,0.83c0.529,0.553,0.793,1.32,0.793,2.303v5.954h-1.164h-1.171V25.95c0-0.548-0.118-0.953-0.354-1.216
		c-0.235-0.263-0.598-0.395-1.086-0.395c-0.612,0-1.082,0.185-1.41,0.553c-0.329,0.369-0.493,0.901-0.493,1.594v4.995H234.5h-1.171
		L233.328,22.63L233.328,22.63z"/>
	<path fill="#3E3D40" d="M247.572,31.529c-0.391,0.032-0.87,0.049-1.439,0.049c-0.824,0-1.417-0.148-1.777-0.443
		c-0.361-0.295-0.541-0.779-0.541-1.453v-5.417h-1.229V22.63h1.229v-2.384h2.334v2.384h1.424v1.635h-1.424v5.027
		c0,0.207,0.062,0.341,0.184,0.406c0.122,0.066,0.375,0.098,0.76,0.098h0.48V31.529z"/>
	<path fill="#3E3D40" d="M252.559,31.708c-1.346,0-2.383-0.416-3.113-1.245c-0.729-0.83-1.094-2.012-1.094-3.547
		c0-1.415,0.371-2.522,1.115-3.322c0.743-0.8,1.773-1.201,3.092-1.201c1.35,0,2.39,0.408,3.119,1.225
		c0.729,0.816,1.094,1.978,1.094,3.486c0.012,0.173-0.002,0.35-0.039,0.529h-6.028c0.054,0.699,0.208,1.223,0.463,1.57
		c0.325,0.434,0.868,0.65,1.627,0.65c0.353,0,0.679-0.1,0.981-0.301c0.3-0.2,0.479-0.442,0.539-0.724h2.375
		c-0.201,0.9-0.664,1.605-1.395,2.115C254.564,31.453,253.652,31.708,252.559,31.708z M254.34,26.145
		c-0.055-0.532-0.195-0.946-0.423-1.245c-0.298-0.396-0.763-0.594-1.392-0.594c-0.602,0-1.061,0.23-1.375,0.692
		c-0.195,0.292-0.336,0.674-0.422,1.147H254.34z"/>
</g>
</svg>
