<?xml version="1.0" encoding="utf-8"?>
<!-- Generator: Adobe Illustrator 14.0.0, SVG Export Plug-In . SVG Version: 6.00 Build 43363)  -->
<!DOCTYPE svg PUBLIC "-//W3C//DTD SVG 1.1//EN" "http://www.w3.org/Graphics/SVG/1.1/DTD/svg11.dtd">
<svg version="1.1" id="Capa_1" xmlns="http://www.w3.org/2000/svg" xmlns:xlink="http://www.w3.org/1999/xlink" x="0px" y="0px"
	 width="34px" height="34px" viewBox="0 0 34 34" enable-background="new 0 0 34 34" xml:space="preserve">
<g>
	<path fill="#9C9E9F" d="M24.563,22.475l-2.92-2.914c-0.016-0.016-0.031-0.024-0.047-0.037c-0.264,0.406-0.576,0.787-0.932,1.144
		c-0.354,0.354-0.736,0.668-1.146,0.929c0.017,0.018,0.027,0.033,0.041,0.049l2.916,2.92c0.576,0.576,1.512,0.576,2.088,0
		C25.137,23.99,25.139,23.05,24.563,22.475z"/>
	<path fill="#9C9E9F" d="M20.248,10.623c-2.65-2.651-6.969-2.651-9.622,0.001c-2.656,2.653-2.656,6.972-0.001,9.625
		c2.655,2.651,6.973,2.651,9.624,0C22.9,17.596,22.9,13.275,20.248,10.623z M11.874,19c-1.964-1.964-1.964-5.162,0.002-7.125
		C13.84,9.912,17.034,9.912,19,11.874c1.962,1.964,1.962,5.159,0,7.126C17.034,20.957,13.84,20.963,11.874,19z"/>
</g>
</svg>
